<svg width="24" height="24" viewBox="0 0 24 24" class="svg-wrapper--8ky9e"><g fill="none" fill-rule="evenodd"><path d="M0 12c0 6.633 5.367 12 12 12V0C5.367 0 0 5.367 0 12zM24 12c0-6.633-5.367-12-12-12v24c6.633 0 12-5.367 12-12z" fill="#009877"></path><path d="M0 12c0 6.633 5.367 12 12 12V0C5.367 0 0 5.367 0 12z"></path><path d="M0 12c0 6.633 5.367 12 12 12V0C5.367 0 0 5.367 0 12z" fill="#FFF" opacity="0.04"></path><g><path d="M15.233 14.733s-1.8 3.067.367 4.734c0 0-2.833-1.367-1.867-3.267-.033.033-.066.033-.1.067-.833.466-5.833-4.034-5.833-5.2v-.2c.033-.034.067-.034.1-.067-1.767.933-3.467-1.867-3.467-1.867 2.5 1.734 4.834.267 4.834.267C8.833 5.6 7 4.233 7 4.233c-.033 0-.1.034-.133.034-.967.533-2.934 1.466-2.934 4.3 0 0 .4 5 4.234 7.866 3.833 2.867 5.466 3 5.466 3s4.3 2.134 6.2-1.9c.034-.066.034-.133.067-.166.1-1.334-4.667-2.634-4.667-2.634z" fill="#F6F6F6"></path><path d="M9.3 9.167c.1-.067.433-.3.433-.567 0-.233-.366-1.867-.433-2s-.967-2.367-1.467-2.5c-.5-.133-.6 0-.6 0l-.166.1c-.034 0 1.766 1.367 2.233 4.967zM19.467 16.033c-1.034-.9-1.3-.966-1.4-1.033-.134-.067-2-.867-2.4-.667-.167.067-.3.234-.434.4 0 0 4.734 1.334 4.667 2.6.167-.266.233-.7-.433-1.3z" fill="#CDCDCD"></path><path d="M15.233 14.733c-.766.5-1.233 1-1.466 1.467-1 1.9 1.866 3.267 1.866 3.267-2.166-1.7-.4-4.734-.4-4.734zM4.467 8.9s1.733 2.8 3.466 1.867c.467-.234.934-.734 1.367-1.6 0 0-2.333 1.466-4.833-.267z" fill="#CDCDCD"></path></g></g></svg>