<svg width="18" height="18" viewBox="0 0 18 18" class="svg-wrapper--8ky9e"><g fill="none" fill-rule="evenodd"><path d="M.034 9c0-4.97 3.969-9 8.865-9 4.896 0 8.865 4.03 8.865 9s-3.969 9-8.865 9C4.003 18 .034 13.97.034 9z" fill="#3B5998"></path><path d="M9.64 13.896V8.999h1.33l.176-1.687H9.64l.003-.844c0-.44.04-.676.662-.676h.832V4.104h-1.33c-1.597 0-2.16.819-2.16 2.195v1.013h-.995V9h.996v4.896H9.64z" fill="#FFF"></path><path d="M17.764 9c0 4.97-3.969 9-8.865 9a8.73 8.73 0 0 1-4.91-1.505l10.158-14.75A9.032 9.032 0 0 1 17.764 9z" fill-opacity="0.08" fill="#000"></path></g></svg>