<svg width="18" height="18" viewBox="0 0 18 18" class="svg-wrapper--8ky9e"><defs><path d="M4.535 1.134H1.933L7.2 6.4l-.8.799-5.266-5.267v2.602H0V.567C0 .254.254 0 .567 0h3.968v1.134zM17.433 0c.313 0 .567.254.567.567v3.968h-1.134V1.933L11.6 7.2l-.799-.8 5.267-5.266h-2.602V0h3.968zm-.567 16.067v-2.602H18v3.968a.567.567 0 0 1-.567.567h-3.968v-1.134h2.602L10.8 11.6l.8-.799 5.266 5.267zM6.401 10.8l.799.804-5.267 5.263h2.602V18H.567A.567.567 0 0 1 0 17.434v-3.966h1.134v2.6L6.4 10.8z" id="full-screen_svg__a"></path></defs><use fill="#FFF" xlink:href="#full-screen_svg__a" fill-rule="evenodd"></use></svg>