<svg width="24" height="24" viewBox="0 0 24 24" class="svg-wrapper--8ky9e"><defs><path d="M16.944 10.978c-5.534.378-6.876-2.923-6.876-5.623 0-.456.053-.91.158-1.355H6.04C2.903 4.167.355 6.56.034 9.643c-.322 3.082 1.68 5.937 4.717 6.73v2.667a.94.94 0 0 0 .272.673c.177.18.42.284.675.287a.931.931 0 0 0 .617-.238l3.576-3.213h2.19c2.699-.151 5.037-1.896 5.919-4.416l-1.056-1.155z" id="chat-icon_svg__b"></path><filter x="-2.8%" y="-3.1%" width="105.6%" height="112.5%" filterUnits="objectBoundingBox" id="chat-icon_svg__a"><feOffset dy="1" in="SourceAlpha" result="shadowOffsetOuter1"></feOffset><feColorMatrix values="0 0 0 0 0.894117647 0 0 0 0 0.705882353 0 0 0 0 0 0 0 0 1 0" in="shadowOffsetOuter1"></feColorMatrix></filter><path d="M11.5 4.314C11.472 2.006 13.32.095 15.668.008V0h4.168v.005c2.214.117 3.994 1.834 4.153 4.007.158 2.173-1.353 4.123-3.528 4.549v1.78a.657.657 0 0 1-.651.659.644.644 0 0 1-.426-.163l-.022-.021-.02-.02-2.2-2.17h-1.47v-.005c-2.347-.088-4.196-1.998-4.168-4.307" id="chat-icon_svg__d"></path><filter x="-4%" y="-4.5%" width="108%" height="118.2%" filterUnits="objectBoundingBox" id="chat-icon_svg__c"><feOffset dy="1" in="SourceAlpha" result="shadowOffsetOuter1"></feOffset><feColorMatrix values="0 0 0 0 0 0 0 0 0 0.454901961 0 0 0 0 0.407843137 0 0 0 1 0" in="shadowOffsetOuter1"></feColorMatrix></filter></defs><g fill="none" fill-rule="evenodd"><g transform="translate(0 2)"><use fill="#000" filter="url(#chat-icon_svg__a)" xlink:href="#chat-icon_svg__b"></use><use fill="#FFC700" xlink:href="#chat-icon_svg__b"></use></g><g transform="translate(0 2)"><use fill="#000" filter="url(#chat-icon_svg__c)" xlink:href="#chat-icon_svg__d"></use><use fill="#009B75" xlink:href="#chat-icon_svg__d"></use></g></g></svg>