<svg height="16" width="16" fill="rgb(112, 118, 118)" viewBox="0 0 24 24" class="svg-wrapper--8ky9e"><path d="M19 17a3.37 3.37 0 0 0-2.3.92l-8.34-5a3.45 3.45 0 0 0 0-1.69l8.25-5a3.43 3.43 0 0 0 4.42.3 3.67 3.67 0 0 0 1.18-4.4A3.47 3.47 0 0 0 18.3.08a3.57 3.57 0 0 0-2.78 3.54 4 4 0 0 0 .1.85l-8.25 5a3.43 3.43 0 0 0-4.91.11 3.69 3.69 0 0 0 0 5.05 3.45 3.45 0 0 0 4.91.11l8.33 5a3.46 3.46 0 0 0-.09.78 3.5 3.5 0 0 0 2.11 3.25 3.32 3.32 0 0 0 3.72-.77 3.58 3.58 0 0 0 .74-3.83A3.4 3.4 0 0 0 19 17z" fill-rule="evenodd"></path></svg>