<svg width="18" height="18" viewBox="0 0 18 18" class="svg-wrapper--8ky9e"><g fill="none" fill-rule="evenodd"><path d="M0 9c0-4.97 3.97-9 8.865-9 4.896 0 8.866 4.03 8.866 9s-3.97 9-8.866 9C3.97 18 0 13.97 0 9z" fill="#4099FF"></path><path d="M8.646 7.166l.018.312-.31-.038c-1.126-.146-2.11-.642-2.947-1.475L5 5.552l-.106.305c-.223.68-.08 1.398.384 1.881.248.267.192.305-.235.147-.149-.051-.279-.09-.291-.07-.043.044.105.622.223.851.16.318.49.63.848.814l.304.146-.36.006c-.346 0-.359.007-.321.14.123.413.613.852 1.157 1.042l.384.134-.334.203a3.443 3.443 0 0 1-1.66.47c-.278.007-.507.032-.507.051 0 .064.755.42 1.195.56 1.319.413 2.885.235 4.062-.47.836-.503 1.672-1.5 2.062-2.467.21-.514.42-1.455.42-1.906 0-.293.02-.33.366-.68.205-.204.397-.426.434-.49.062-.12.055-.12-.26-.012-.527.19-.601.165-.341-.121.192-.203.421-.572.421-.68 0-.02-.093.013-.198.07a3.42 3.42 0 0 1-.545.216l-.334.108-.304-.21a2.506 2.506 0 0 0-.526-.28c-.316-.088-.799-.076-1.084.026-.774.286-1.263 1.023-1.207 1.83z" fill="#FFF"></path><path d="M17.73 9c0 4.97-3.969 9-8.865 9a8.73 8.73 0 0 1-4.91-1.505l10.158-14.75A9.032 9.032 0 0 1 17.731 9z" fill-opacity="0.08" fill="#000"></path></g></svg>