<svg height="72" width="72" viewBox="0 0 72 72" class="svg-wrapper--8ky9e"><defs><path id="delivery-icon-illustration_svg__a" d="M0 0h25.443v29.448H0z"></path><path id="delivery-icon-illustration_svg__c" d="M0 0h10.186v11.874H0z"></path></defs><g fill="none" fill-rule="evenodd"><path fill="#ECECEC" d="M9 40.564h2.386V37.11H9z"></path><path d="M17.112 67.104c-.038 0-.07-5.955-.07-13.299 0-7.346.032-13.3.07-13.3.037 0 .068 5.954.068 13.3 0 7.344-.03 13.299-.068 13.299" fill="#E1E1E1"></path><path d="M47.381 24.974s3.207.55 3.463.62c.256.069 1.244.558 1.27.872.024.314-.108 1.238-.108 1.238s-.199.152-.29-.15c-.09-.303-.02-.902-.02-.902l-.558-.221.266.558-.06 1.308s-.4-.036-.45-.35c-.052-.312-.02-.661-.02-.661l-.39-.356.277.425.025.942s-.315.1-.394-.11c-.078-.209-.032-.832-.032-.832l-1.15-.413-.823.436-1.396-.828.39-1.576z" fill="#A96C44"></path><path d="M37.19 17.195c.004.065 2.895 5.777 2.895 5.777l7.358 2.002-.643 2.39-9.434-1.16-2.667-4.213 2.492-4.796z" fill="#018265"></path><path d="M54.271 58.984c-.459 4.548 2.856 8.29 7.405 8.355 4.548.066 8.607-3.569 9.066-8.118.459-4.549-2.856-8.289-7.405-8.355-4.548-.066-8.607 3.569-9.066 8.118" fill="#1A2E35"></path><path d="M61.924 64.885c3.192.046 6.043-2.506 6.365-5.699.322-3.193-2.006-5.82-5.2-5.866-3.192-.046-6.042 2.506-6.364 5.7-.322 3.193 2.005 5.819 5.199 5.865z" fill="#D4DED9"></path><path d="M62.115 62.58c1.923.028 3.64-1.517 3.834-3.45.194-1.933-1.208-3.522-3.132-3.55-1.922-.028-3.639 1.517-3.832 3.45-.194 1.932 1.207 3.522 3.13 3.55z" fill="#1A2E35"></path><path d="M59.636 47.025S68.3 44.474 71 53.636l-18.14 5.466 6.776-12.077z" fill="#707676"></path><path d="M3.389 58.984c-.459 4.548 2.856 8.29 7.405 8.355 4.548.066 8.607-3.569 9.066-8.118.458-4.549-2.857-8.289-7.405-8.355-4.548-.066-8.607 3.569-9.066 8.118" fill="#1A2E35"></path><path d="M3.392 58.962c0 .008-.002.014-.003.022-.459 4.548 2.856 8.289 7.405 8.355 4.548.066 8.607-3.569 9.066-8.118l.001-.02-16.469-.239z" fill="#1A2E35"></path><path d="M5.843 59.02c-.322 3.193 2.005 5.819 5.198 5.865 3.193.046 6.043-2.506 6.365-5.699.322-3.193-2.005-5.82-5.198-5.866-3.194-.046-6.043 2.506-6.365 5.7" fill="#D4DED9"></path><path d="M23.64 55.796c-.048.023-4.283-.663-4.283-.663a2.903 2.903 0 0 1-2.047 1.024c-1.862.088-3.683.17-5.26.24-1.47.066-2.712 1.303-2.777 2.767v.002c-.061 1.383.955 2.49 2.335 2.545l9.101.36c1.497.058 3.572-.853 4.611-2.026l-1.68-4.25z" fill="#424E4E"></path><path d="M1.52 52.15s.3-8.027 7.997-9.7l.09-1.029h26.458l-.212 2.454s-4.287 4.671-3.354 8.55c.933 3.88 1.295 4.275 1.295 4.275h15.058s2.022-2.296 2.395-5.7c.373-3.404-.54-9.225-1.275-12.946-.669-3.383-1.032-6.212-1.032-6.212l4.648-1.504s7.415 10.917 7.704 11.531c.288.614 1.325 2.046.78 5.184-.544 3.138-8.893 12.824-10.967 13.915-2.075 1.092-3.856 1.16-5.655 1.433-1.562.237-12.949.08-15.927.035-1.034-.016-2.034-.28-2.873-.817-.845-.54-1.439-1.434-2.052-2.901l-1.305-3.07L1.519 52.15z" fill="#AFB7AD"></path><path d="M20.124 41.421H5.655c-1.476 0-2.57-1.196-2.443-2.67l.76-8.784c.127-1.475 1.427-2.67 2.904-2.67h14.468c1.477 0 2.57 1.195 2.443 2.67l-.759 8.784c-.127 1.474-1.427 2.67-2.904 2.67" fill="#E6AD5A"></path><path d="M36.065 41.421s.482-.52.58-1.184c.1-.663-.132-1.493-.846-1.493l-6.596.381c-.633.037-.656.138-1.267-.03l-.96-.265a1.748 1.748 0 0 0-.727-.055c-1.303.198-2.383 1.307-2.499 2.646h12.315z" fill="#424E4E"></path><path d="M48.94 31.842l-1.303-3.31c-.353-.941.09-2.058 1.027-2.589l4.995-2.83a1.71 1.71 0 0 1 .842-.227h1.026l-.167 6.69-1.636.606.862 1.628-5.646.032z" fill="#AFB7AD"></path><path d="M55.521 23.13s1.594.371 1.582 2.875c-.012 2.503-1.717 3.282-1.717 3.282l.135-6.158z" fill="#ECECEC"></path><path d="M49.892 27.236s-3.42 1.555-3.844 1.81c-.294.177-.56.488-.388 1.033.292.93 1.904.055 1.904.055l3.19-1.527s1.224-.555.85-1.248c-.419-.777-1.712-.123-1.712-.123" fill="#1A2E35"></path><path d="M45.29 26.668s3.041.529 3.297.599c.256.07 1.244.558 1.27.872.025.314-.107 1.238-.107 1.238s-.2.152-.29-.15c-.09-.303-.021-.902-.021-.902l-.557-.221.266.558-.061 1.309s-.4-.037-.45-.35c-.052-.313-.02-.662-.02-.662l-.39-.356.278.425.024.943s-.315.099-.393-.11c-.079-.21-.033-.833-.033-.833l-1.15-.413-.823.437-1.69-.773.85-1.61z" fill="#A96C44"></path><g transform="translate(31.718 30.737)"><mask id="delivery-icon-illustration_svg__b" fill="#fff"><use xlink:href="#delivery-icon-illustration_svg__a"></use></mask><path d="M1.04 22.73c-.053-.2-.107-.407-.155-.618-.047-.196-.103-.4-.14-.596a6.222 6.222 0 0 1-.097-.92c-1.607 4.838-.085 8.245 3.013 8.485 4.527.35 10.06.605 12.359.015 4.189-1.074 5.987-4.485 6.394-5.047.407-.563 4.18-6.511 2.678-12.24C23.59 6.082 20.636 0 20.636 0l-3.413 1.106s.363 2.829 1.031 6.212c.736 3.72 1.649 9.542 1.275 12.946-.373 3.404-2.394 5.7-2.394 5.7H2.076s-.295-.323-1.037-3.233" fill="#000" mask="url(#delivery-icon-illustration_svg__b)"></path></g><path d="M1.026 50.891l.205-1.147 27.213 3.162c1.535.182 2.488 1.63 2.083 3.167l-.183.696-28.09-4.13c-.842-.123-1.381-.891-1.228-1.748" fill="#707676"></path><path d="M38.503 50.457l-2.415 7.575 7.528-.014c.013-.7-3.766-2.1-3.766-2.1l2.412-5.458-3.759-.003z" fill="#375A64"></path><path d="M41.111 57.117c-.034.008-.07-.17.04-.367.11-.197.29-.275.302-.245.019.03-.101.135-.19.297-.092.161-.115.312-.152.315M39.98 55.016c-.019.033-.183-.016-.393-.002-.208.01-.375.078-.392.047-.02-.025.15-.158.396-.172.246-.014.409.1.388.127M39.871 54.146c0 .015-.147.037-.376-.001a1.599 1.599 0 0 1-.593-.229c-.033-.021-.072-.043-.106-.086-.038-.037-.053-.132-.002-.19a.224.224 0 0 1 .168-.083c.056-.001.1.009.14.019a1.186 1.186 0 0 1 .557.3c.162.157.21.29.198.298-.018.011-.094-.1-.26-.23a1.357 1.357 0 0 0-.533-.25c-.078-.019-.146-.02-.17.015-.008.013-.009.019.006.041a.33.33 0 0 0 .078.063 1.924 1.924 0 0 0 .543.246c.212.059.353.068.35.087" fill="#1A2E35"></path><path d="M39.82 54.198c-.014.005-.076-.123-.07-.355a1.21 1.21 0 0 1 .198-.625c.05-.073.112-.17.256-.187a.16.16 0 0 1 .149.103c.02.05.022.092.027.134a.816.816 0 0 1-.02.248.92.92 0 0 1-.192.38c-.163.19-.32.233-.322.22-.01-.017.123-.087.25-.27a.896.896 0 0 0 .148-.345.735.735 0 0 0 .01-.212c-.004-.078-.03-.14-.06-.133-.038 0-.106.058-.142.12a1.397 1.397 0 0 0-.213.566c-.027.216 0 .35-.02.356" fill="#1A2E35"></path><path fill="#0E1F25" d="M40.743 37.666L36.88 54.829l4.21.224 6.257-17.68"></path><path d="M26.852 33.304c.25-.24 0 0 0 0 .156.029.31.06.46.104.447.128 1.487.34 2.664-.01 1.57-.468 6.204-.524 6.204-.524l.082-.882a31.679 31.679 0 0 1 4.54-13.659l.176-.288c.39-1.03-.386-2.232-1.981-2.93l-1.687-1.431-1.043.045s-11.122 3.466-11.493 18.517c0 0 .498 2.568 2.078 1.058" fill="#01B28B"></path><path d="M38.022 24.634c.166-.96.367-1.641.603-2.046-2.101-2.886-3.293-4.717-3.576-5.49-.282-.775.708 1.737 2.973 7.536zM36.813 28.279l-3.062-.355a1.578 1.578 0 0 1-.607-.56c-.17-.257-.94-2.946-2.309-8.066l6.69 6.53-.712 2.451z" fill="#018265"></path><path d="M34.872 15.86s-3.434.851-4.188 3.258l2.503 5.734c.497 1.439 1.504 2.325 3.004 2.954l7.908 1.151 1.26-2.31-6.852-2.467c-.31-.18-.325-.6-.485-.921l-3.719-7.441" fill="#01B28B"></path><path d="M42.672 51.391l-2.416 7.575 7.528-.013c.014-.7-3.766-2.1-3.766-2.1l2.412-5.459-3.758-.003z" fill="#375A64"></path><path d="M44.148 55.95c-.018.033-.183-.016-.392-.002-.208.01-.376.078-.392.047-.02-.025.15-.158.395-.172.246-.015.41.1.389.127M44.04 55.08c0 .015-.148.037-.377-.001a1.615 1.615 0 0 1-.592-.229c-.033-.021-.072-.043-.107-.086-.037-.037-.053-.132-.001-.19a.224.224 0 0 1 .168-.083c.056-.002.1.01.14.019a1.184 1.184 0 0 1 .558.3c.16.157.21.29.196.298-.017.011-.093-.1-.26-.23a1.35 1.35 0 0 0-.532-.249c-.078-.02-.147-.02-.17.014-.008.013-.01.018.005.04a.33.33 0 0 0 .079.064 1.947 1.947 0 0 0 .543.246c.211.058.352.068.35.087" fill="#1A2E35"></path><path d="M43.988 55.132c-.013.005-.076-.123-.07-.355a1.21 1.21 0 0 1 .198-.625c.05-.073.112-.17.256-.187a.16.16 0 0 1 .15.103c.02.05.021.092.027.134a.817.817 0 0 1-.02.248.917.917 0 0 1-.192.38c-.163.19-.32.233-.322.22-.01-.017.123-.087.25-.27a.896.896 0 0 0 .148-.345.728.728 0 0 0 .01-.212c-.005-.078-.03-.14-.06-.133-.038 0-.106.058-.142.12a1.387 1.387 0 0 0-.213.566c-.028.216 0 .35-.02.356" fill="#1A2E35"></path><path d="M46.19 56.168l-5.33.725 2.953-18.108-13.465.969a3.16 3.16 0 0 1-1.046-.102c-3.67-1.029-2.748-5.815-2.319-6.582l18.563-.531c2.014-.058 3.618 1.403 3.725 3.39L46.19 56.17z" fill="#1A2E35"></path><path d="M40.453 8.928l-3.276 4.958c-.484 1.013-.18 2.343.762 2.809l.241.127c1.039.513 2.118.15 2.725-1.106.284-.59.826-.139.826-.139s1.522.464 2.355-.98c.481-.835 1.412-2.808 2.112-4.325.474-1.026.106-2.175-.844-2.645l-.843-.417c-1.5-.629-3.336.148-4.058 1.718" fill="#A96C44"></path><path d="M41.26 15.389s-.439-.193-1.031-1.27c0 0-.79 1.04.676 1.597l.355-.327z" fill="#A96C44"></path><path d="M40.31 10.251c-.018-.022-.792-.769-1.32.24-.527 1.008.557 1.241.574 1.213.017-.028.746-1.453.746-1.453" fill="#FFC09D"></path><path d="M38.821 5.244c-3.764 2.943-1.322 7.382-1.322 7.382s2.542.907 3.08.286c0 0 .436-2.943 1.683-3.362 1.246-.42 3.281.327 3.727.632.446.305 1.91-1.078.97-3.246-1.135-2.622-4.984-4.159-8.138-1.692z" fill="#AFB7AD"></path><path d="M47.238 7.9c-1.537-2.024-4.836-2.939-7.6-.777-2.227 1.741-2.282 4.005-1.956 5.565.593.193 2.446.744 2.896.224 0 0 .437-2.943 1.683-3.362 1.247-.42 3.282.328 3.728.632.375.257 1.473-.683 1.25-2.281" fill="#707676"></path><path d="M41.493 16.21c-1.697-.735-1.667-2.722-2.074-4.038a.38.38 0 0 1 .25-.474c1.027-.321.318 3.033 2.127 3.817.46.2.158.896-.303.696" fill="#1A2E35"></path></g></svg>