<svg height="24" width="180" id="doorstep-delivery-white_svg__Layer_1" x="0" y="0" viewBox="0 0 179 26" xmlSpace="preserve"><style>.doorstep-delivery-white_svg__st1{fill:#fcfbfa}</style><g id="doorstep-delivery-white_svg__SERP"><g id="doorstep-delivery-white_svg__Desktop-SERP" transform="translate(-701 -365)"><g id="doorstep-delivery-white_svg__DSD-Discovery" transform="translate(108 333)"><g id="doorstep-delivery-white_svg__Copy" transform="translate(196 32)"><g id="doorstep-delivery-white_svg__Doorstep-Delivery" transform="translate(397)"><g id="doorstep-delivery-white_svg__tag_x2B_text"><path class="doorstep-delivery-white_svg__st1" d="M16.2 6.9c.8 0 1.6.2 2.3.5.7.3 1.2.8 1.5 1.6.2.4.3.9.4 1.4 0 .6.1 1.2.1 1.9 0 .8 0 1.5-.1 2 0 .6-.2 1.1-.3 1.5-.2.4-.4.8-.7 1-.3.3-.6.5-1 .7-.4.2-.7.3-1.2.4-.4.1-.8.1-1.3.1h-3.8V6.9h4.1zm-2.1 9.3H16c.5 0 .9-.1 1.2-.2.3-.1.6-.3.8-.6.2-.2.3-.5.4-.9.1-.3.1-.7.1-1.1v-2.1c0-1-.2-1.7-.7-2.1-.4-.4-1.1-.6-1.9-.6H14v7.6zM26.1 6.8c.6 0 1.2.1 1.7.3.5.2.9.5 1.3.9s.6.8.8 1.3c.2.5.3 1.1.3 1.7v2.8c0 .7-.1 1.2-.3 1.8-.2.5-.5 1-.8 1.3-.4.4-.8.7-1.3.8-.5.2-1.1.3-1.7.3-.7 0-1.3-.1-1.8-.3-.5-.2-1-.5-1.3-.9-.3-.4-.6-.8-.8-1.4-.2-.5-.3-1-.3-1.6V11c0-.6.1-1.1.3-1.6.2-.5.4-1 .8-1.4.3-.4.8-.7 1.3-.9.5-.2 1.1-.3 1.8-.3zm0 1.8c-.4 0-.7.1-1 .2-.3.1-.5.3-.7.5-.2.2-.3.5-.4.7s-.1.6-.1.8v3c0 .3 0 .6.1.9.1.3.2.5.4.8.2.2.4.4.7.5.3.1.6.2 1 .2.3 0 .7-.1.9-.2.3-.1.5-.3.7-.5.2-.2.3-.5.4-.8s.2-.6.2-.9v-3c0-.3-.1-.6-.2-.9-.1-.3-.2-.5-.4-.7s-.4-.3-.7-.4c-.3-.1-.6-.2-.9-.2zM35.8 6.8c.6 0 1.2.1 1.7.3.5.2.9.5 1.3.9s.6.8.8 1.3c.3.5.4 1.1.4 1.7v2.8c0 .7-.1 1.2-.3 1.8-.2.5-.5 1-.8 1.3-.4.4-.8.7-1.3.8-.5.2-1.1.3-1.7.3-.7 0-1.3-.1-1.8-.3-.5-.2-1-.5-1.3-.9-.3-.4-.6-.8-.8-1.4-.2-.5-.3-1-.3-1.6V11c0-.6.1-1.1.3-1.6.2-.5.4-1 .8-1.4.3-.4.8-.7 1.3-.9.4-.2 1-.3 1.7-.3zm0 1.8c-.4 0-.7.1-1 .2-.3.1-.5.3-.7.5-.2.2-.3.5-.4.7s-.1.6-.1.8v3c0 .3 0 .6.1.9.1.3.2.5.4.8.2.2.4.4.7.5.3.1.6.2 1 .2.3 0 .7-.1.9-.2.3-.1.5-.3.7-.5.2-.2.3-.5.4-.8s.2-.6.2-.9v-3c0-.3-.1-.6-.2-.9-.1-.3-.2-.5-.4-.7s-.4-.3-.7-.4c-.2-.1-.5-.2-.9-.2zM47.8 18l-1.9-4.6h-2.1V18h-1.9V6.9h4.7c.5 0 .9.1 1.3.2s.8.4 1.1.6c.3.3.6.6.7 1 .3.4.3.9.3 1.4 0 .7-.2 1.3-.6 1.9-.4.5-.9.9-1.6 1.2L50 18h-2.2zm.3-7.9c0-.5-.2-.9-.5-1.1-.3-.2-.7-.4-1.2-.4h-2.5v3.1h2.4c.5 0 1-.1 1.3-.4.3-.3.5-.7.5-1.2zM58.1 9.4c-.5-.3-.9-.5-1.4-.6-.5-.1-.9-.2-1.3-.2-.7 0-1.2.1-1.5.4-.3.3-.4.6-.4 1 0 .2.1.4.2.6.1.2.3.3.5.4.2.1.5.2.8.3s.8.2 1.2.2l1.2.3c.4.1.7.3 1.1.5.3.2.6.5.7.9.2.4.3.9.3 1.4 0 .5-.1 1-.3 1.4-.2.4-.5.8-.9 1.1-.4.3-.8.5-1.3.7-.5.1-1 .2-1.6.2-.7 0-1.5-.1-2.3-.3-.8-.2-1.5-.6-2.2-1.2l1.2-1.5c.5.4 1 .8 1.6 1s1.2.3 1.8.3 1.1-.1 1.5-.4.6-.6.6-1.1c0-.4-.2-.8-.5-1s-.8-.4-1.5-.5c-.5-.1-1-.2-1.4-.3-.5-.1-.9-.3-1.2-.5-.4-.2-.7-.5-.9-.9-.2-.4-.3-.9-.3-1.5s.1-1 .3-1.4c.2-.4.5-.8.9-1 0-.4.4-.6.9-.7.5-.1.9-.2 1.4-.2.7 0 1.4.1 2 .2s1.2.4 1.7.8l-.9 1.6zM64.9 8.6V18H63V8.6h-3.1V6.9H68v1.7h-3.1zM69.3 18V6.9h7.5v1.8h-5.5v2.9H76v1.7h-4.7v3h5.5V18h-7.5zM86.5 10.4c0 .4-.1.9-.3 1.3s-.4.8-.7 1.1-.7.6-1.2.7-.9.3-1.5.3h-2.5V18h-1.9V6.9h4.3c.5 0 1 .1 1.5.2s.9.4 1.2.7c.3.2.6.6.8 1s.3 1 .3 1.6zm-2-.1c0-.6-.2-1-.5-1.3-.3-.3-.8-.4-1.3-.4h-2.4V12h2.4c.6 0 1-.2 1.3-.5.3-.4.5-.7.5-1.2zM95.9 6.9c.8 0 1.6.2 2.3.5.7.3 1.2.8 1.5 1.6.2.4.3.9.4 1.4s.1 1.2.1 1.9c0 .8 0 1.5-.1 2 0 .6-.2 1.1-.3 1.5-.2.4-.4.8-.7 1-.3.3-.6.5-1 .7-.4.2-.7.3-1.2.4-.4.1-.8.1-1.3.1h-3.8V6.9h4.1zm-2.1 9.3h1.9c.5 0 .9-.1 1.2-.2.3-.1.6-.3.8-.6.2-.2.3-.5.4-.9.1-.3.1-.7.1-1.1v-2.1c0-1-.2-1.7-.7-2.1-.4-.4-1.1-.6-1.9-.6h-1.9v7.6zM102.1 18V6.9h7.5v1.8H104v2.9h4.7v1.7H104v3h5.5V18h-7.4zM111.1 18V6.9h1.9v9.4h5.5V18h-7.4zM120.1 18V6.9h1.9V18h-1.9zM128.6 18H127l-3.8-11.1h2.1l1.6 5.1.9 2.9h.1l.8-2.9 1.6-5.1h2.1L128.6 18zM133.6 18V6.9h7.5v1.8h-5.5v2.9h4.7v1.7h-4.7v3h5.5V18h-7.5zM148.6 18l-1.9-4.6h-2.1V18h-1.9V6.9h4.7c.5 0 .9.1 1.3.2s.8.4 1.1.6c.3.3.6.6.7 1 .2.4.3.8.3 1.3 0 .7-.2 1.3-.6 1.9-.4.5-.9.9-1.6 1.2l2.2 4.9h-2.2zm.2-7.9c0-.5-.2-.9-.5-1.1-.3-.2-.7-.4-1.2-.4h-2.5v3.1h2.4c.5 0 1-.1 1.3-.4.3-.3.5-.7.5-1.2zM158.6 10.1c-.6 1.1-1.2 2.2-1.7 3.3V18H155v-4.6c-.6-1.1-1.2-2.2-1.7-3.3-.6-1.1-1.1-2.2-1.7-3.3h2.1l1.3 2.8c.2.4.3.7.5 1.1s.3.7.5 1.1l1-2.2 1.3-2.7h2c-.6 1.1-1.2 2.2-1.7 3.2z" transform="translate(18)"></path></g><g id="doorstep-delivery-white_svg__lock-icon" transform="translate(1 1)"><circle id="doorstep-delivery-white_svg__Oval" cx="12" cy="12" r="11.5" fill="none" stroke="#fff"></circle><path id="doorstep-delivery-white_svg__Fill-7" d="M14.6 13.4L12 15.9c-.1.1-.3.2-.5.2s-.4-.1-.5-.2l-1.6-1.6c-.3-.3-.3-.7 0-1 .3-.3.7-.3 1 0l1.1 1.1 2-2c.3-.3.7-.3 1 0 .4.3.4.7.1 1zm-4.6-6c0-.7.6-1.4 1.4-1.4h1.2c.8 0 1.4.7 1.4 1.4v2h-4v-2zm6.5 2.1H16v-2c0-2-1.5-3.5-3.4-3.5h-1.2C9.5 4 8 5.5 8 7.4v2h-.5c-.8.1-1.5.7-1.5 1.6v6.3c0 .8.7 1.5 1.5 1.5h8.9c.8 0 1.5-.7 1.5-1.5V11c.1-.9-.6-1.5-1.4-1.5z" fill-rule="evenodd" clip-rule="evenodd" fill="#fff"></path></g></g></g></g></g></g></svg>