<svg width="119" height="126" viewBox="0 0 119 126" class="svg-wrapper--8ky9e"><defs><path id="doorstep-art_svg__a" d="M0 0h37.163v43.011H0z"></path><path id="doorstep-art_svg__c" d="M0 0h14.878v17.343H0z"></path></defs><g fill="none" fillRule="evenodd"><circle fill="#F3F6F5" cx="59.5" cy="61.5" r="59.5"></circle><path fill="#ECECEC" d="M26.983 84.079h3.485v-5.044h-3.485z"></path><path d="M38.83 122.843c-.055 0-.1-8.697-.1-19.424 0-10.73.045-19.427.1-19.427.055 0 .1 8.697.1 19.427 0 10.727-.045 19.424-.1 19.424" fill="#E1E1E1"></path><path d="M83.042 61.309s4.684.802 5.058.904c.373.102 1.817.815 1.854 1.274.036.458-.157 1.809-.157 1.809s-.29.222-.422-.22c-.133-.443-.032-1.316-.032-1.316l-.813-.324.388.815-.088 1.911s-.584-.053-.658-.51c-.075-.458-.029-.967-.029-.967l-.57-.52.406.622.036 1.375s-.46.145-.575-.16c-.114-.306-.048-1.215-.048-1.215l-1.68-.605-1.202.638-2.038-1.21.57-2.301z" fill="#A96C44"></path><path d="M68.158 49.946c.004.096 4.228 8.438 4.228 8.438l10.746 2.925-.939 3.49-13.78-1.693-3.895-6.154 3.64-7.006z" fill="#018265"></path><path d="M93.106 110.983c-.67 6.643 4.171 12.107 10.815 12.203 6.643.096 12.572-5.212 13.242-11.856.67-6.644-4.172-12.108-10.816-12.204-6.643-.096-12.572 5.213-13.241 11.857" fill="#1A2E35"></path><path d="M104.282 119.602c4.664.068 8.827-3.66 9.297-8.324.47-4.664-2.93-8.5-7.593-8.568-4.664-.067-8.827 3.66-9.297 8.324-.47 4.665 2.93 8.5 7.593 8.568z" fill="#D4DED9"></path><path d="M104.562 116.235c2.81.04 5.316-2.215 5.6-5.038.283-2.823-1.765-5.145-4.574-5.185-2.808-.042-5.315 2.214-5.598 5.037-.284 2.823 1.764 5.145 4.572 5.186z" fill="#1A2E35"></path><path d="M100.941 93.515s12.655-3.726 16.598 9.657l-26.496 7.984 9.898-17.64z" fill="#707676"></path><path d="M18.787 110.983c-.67 6.643 4.172 12.107 10.815 12.203 6.644.096 12.572-5.212 13.242-11.856.67-6.644-4.172-12.108-10.815-12.204-6.643-.096-12.572 5.213-13.242 11.857" fill="#1A2E35"></path><path d="M18.792 110.952l-.005.03c-.67 6.644 4.172 12.108 10.815 12.204 6.644.096 12.572-5.213 13.242-11.857l.002-.03-24.054-.347z" fill="#1A2E35"></path><path d="M22.37 111.034c-.47 4.665 2.93 8.5 7.594 8.568 4.664.068 8.826-3.66 9.297-8.324.47-4.664-2.93-8.5-7.593-8.568-4.664-.067-8.827 3.66-9.297 8.324" fill="#D4DED9"></path><path d="M48.365 106.326c-.07.034-6.255-.968-6.255-.968-.764.894-1.858 1.442-2.99 1.495-2.72.13-5.38.25-7.682.352-2.149.096-3.962 1.903-4.057 4.04v.004c-.09 2.02 1.395 3.638 3.41 3.717l13.294.525c2.186.086 5.217-1.245 6.734-2.959l-2.454-6.206z" fill="#424E4E"></path><path d="M16.056 101.002s.44-11.725 11.682-14.168l.13-1.503h38.646l-.31 3.584s-6.262 6.823-4.9 12.488c1.363 5.666 1.892 6.244 1.892 6.244H85.19s2.953-3.353 3.498-8.325c.546-4.972-.788-13.474-1.862-18.909-.977-4.941-1.508-9.073-1.508-9.073l6.789-2.197s10.831 15.945 11.252 16.842c.421.897 1.936 2.989 1.141 7.572-.795 4.583-12.99 18.73-16.02 20.325-3.03 1.594-5.632 1.694-8.26 2.092-2.28.346-18.912.117-23.261.05-1.511-.022-2.971-.408-4.197-1.192-1.234-.79-2.102-2.094-2.997-4.238l-1.907-4.483L16.056 101z" fill="#AFB7AD"></path><path d="M43.23 85.331H22.097c-2.156 0-3.754-1.747-3.568-3.9l1.109-12.83c.186-2.154 2.086-3.9 4.242-3.9h21.133c2.156 0 3.754 1.746 3.568 3.9l-1.109 12.83c-.186 2.153-2.085 3.9-4.242 3.9" fill="#E6AD5A"></path><path d="M66.514 85.331s.703-.76.848-1.73c.144-.969-.194-2.181-1.238-2.181l-9.632.558c-.925.053-.96.2-1.852-.045l-1.402-.387a2.553 2.553 0 0 0-1.062-.08c-1.903.288-3.48 1.909-3.65 3.865h17.988z" fill="#424E4E"></path><path d="M85.319 71.34l-1.903-4.835c-.516-1.374.13-3.005 1.5-3.78l7.296-4.135c.382-.217.806-.33 1.229-.33h1.5l-.245 9.77-2.39.884 1.26 2.38-8.247.046z" fill="#AFB7AD"></path><path d="M94.932 58.614s2.327.543 2.31 4.2c-.017 3.656-2.509 4.794-2.509 4.794l.199-8.994z" fill="#ECECEC"></path><path d="M86.709 64.611s-4.996 2.272-5.615 2.645c-.428.259-.816.712-.567 1.509.427 1.358 2.782.08 2.782.08l4.66-2.23s1.788-.81 1.241-1.824c-.612-1.134-2.501-.18-2.501-.18" fill="#1A2E35"></path><path d="M79.988 63.783s4.441.772 4.815.874c.374.102 1.818.815 1.854 1.274.037.458-.156 1.809-.156 1.809s-.29.222-.423-.22c-.132-.443-.03-1.317-.03-1.317l-.815-.323.389.815-.089 1.912s-.583-.054-.658-.512c-.074-.457-.028-.967-.028-.967l-.57-.52.406.622.036 1.377s-.46.144-.575-.161c-.115-.306-.048-1.216-.048-1.216l-1.68-.604-1.202.638-2.47-1.129 1.244-2.352z" fill="#A96C44"></path><g transform="translate(60.164 69.726)"><mask id="doorstep-art_svg__b" fill="#fff"><use xlink:href="#doorstep-art_svg__a"></use></mask><path d="M1.518 33.2c-.076-.294-.155-.595-.226-.903-.067-.287-.15-.585-.203-.871a9.088 9.088 0 0 1-.142-1.343c-2.348 7.066-.125 12.042 4.4 12.392 6.612.512 14.695.884 18.052.023 6.118-1.569 8.744-6.551 9.34-7.373.594-.822 6.104-9.51 3.91-17.876C34.456 8.883 30.14-.001 30.14-.001l-4.985 1.615s.53 4.132 1.507 9.073c1.074 5.434 2.408 13.937 1.862 18.909-.545 4.972-3.497 8.325-3.497 8.325H3.032s-.43-.472-1.514-4.721" fill="#000" mask="url(#doorstep-art_svg__b)"></path></g><path d="M15.336 99.163l.3-1.677 39.746 4.62c2.243.266 3.635 2.381 3.043 4.625l-.268 1.016-41.028-6.03c-1.229-.18-2.017-1.303-1.793-2.554" fill="#707676"></path><path d="M70.074 98.53l-3.528 11.063 10.996-.02c.02-1.023-5.5-3.067-5.5-3.067l3.522-7.972-5.49-.005z" fill="#375A64"></path><path d="M73.884 108.257c-.05.01-.103-.25.059-.537.16-.288.421-.401.44-.358.028.044-.148.197-.277.435-.135.234-.168.454-.222.46M72.23 105.188c-.025.048-.266-.024-.572-.004-.304.015-.548.115-.573.07-.028-.037.219-.232.578-.252.36-.021.597.145.568.186M72.073 103.917c-.001.022-.216.054-.55-.002a2.335 2.335 0 0 1-.866-.334c-.047-.031-.105-.063-.155-.126-.055-.054-.077-.193-.002-.278a.327.327 0 0 1 .245-.12.723.723 0 0 1 .204.027c.12.03.232.068.333.114.203.093.364.21.482.324.236.23.307.425.288.435-.026.017-.137-.146-.38-.336a1.982 1.982 0 0 0-.778-.363c-.114-.03-.214-.03-.248.02-.012.02-.013.028.008.06.023.03.067.061.115.092a2.81 2.81 0 0 0 .794.36c.307.085.513.098.51.127" fill="#1A2E35"></path><path d="M71.997 103.992c-.02.008-.11-.18-.103-.518.005-.168.04-.372.123-.587a1.89 1.89 0 0 1 .168-.326c.072-.107.163-.249.373-.272a.233.233 0 0 1 .218.149c.03.072.032.135.04.197.01.125-.003.248-.029.361a1.344 1.344 0 0 1-.28.555c-.238.278-.468.341-.47.323-.016-.026.18-.128.366-.395a1.31 1.31 0 0 0 .215-.504c.019-.1.026-.204.015-.31-.008-.114-.044-.205-.089-.194-.055 0-.154.085-.206.176a2.013 2.013 0 0 0-.161.291 2.04 2.04 0 0 0-.15.536c-.041.315 0 .51-.03.518" fill="#1A2E35"></path><path fill="#0E1F25" d="M73.347 79.846l-5.643 25.069 6.15.327 9.138-25.823"></path><path d="M53.057 73.474c.365-.35 0 0 0 0 .227.043.452.09.673.153.652.187 2.171.496 3.89-.016 2.292-.682 9.062-.764 9.062-.764l.119-1.288a46.27 46.27 0 0 1 6.631-19.95l.258-.421c.57-1.506-.564-3.26-2.894-4.28l-2.464-2.09-1.524.066S50.564 49.946 50.022 71.93c0 0 .727 3.75 3.035 1.544" fill="#01B28B"></path><path d="M69.372 60.812c.243-1.401.536-2.397.88-2.988-3.068-4.216-4.809-6.89-5.222-8.02-.413-1.13 1.034 2.538 4.342 11.008zM67.607 66.135l-4.473-.519c-.34-.168-.636-.44-.886-.816-.25-.376-1.375-4.303-3.373-11.782l9.772 9.538-1.04 3.58z" fill="#018265"></path><path d="M64.771 47.997s-5.015 1.243-6.117 4.758l3.655 8.375c.726 2.101 2.197 3.395 4.39 4.315l11.55 1.681 1.84-3.373-10.009-3.605c-.452-.263-.474-.877-.708-1.345L63.94 47.935" fill="#01B28B"></path><path d="M76.163 99.893l-3.528 11.064 10.996-.02c.02-1.023-5.5-3.067-5.5-3.067l3.522-7.972-5.49-.005z" fill="#375A64"></path><path d="M78.32 106.552c-.027.048-.267-.024-.573-.004-.304.015-.549.115-.573.07-.028-.037.219-.232.578-.251.36-.022.597.144.568.185M78.162 105.281c-.001.022-.216.054-.55-.002a2.358 2.358 0 0 1-.866-.334c-.047-.031-.105-.063-.155-.126-.055-.054-.078-.193-.002-.278a.327.327 0 0 1 .245-.12c.081-.003.145.013.204.027.12.03.232.068.333.114.203.093.364.21.482.324.235.23.307.425.287.436-.025.016-.136-.147-.38-.336a1.973 1.973 0 0 0-.778-.364c-.113-.03-.213-.03-.247.02-.012.02-.014.028.008.06.022.03.067.061.114.092a2.844 2.844 0 0 0 .794.36c.308.085.514.099.511.127" fill="#1A2E35"></path><path d="M78.086 105.356c-.02.008-.11-.179-.103-.517.005-.169.04-.372.123-.588.043-.108.098-.218.167-.326.073-.106.164-.248.374-.272a.233.233 0 0 1 .218.15c.03.071.032.134.04.196.01.125-.003.248-.03.361a1.34 1.34 0 0 1-.28.555c-.237.278-.467.341-.47.323-.016-.026.18-.127.366-.395a1.31 1.31 0 0 0 .215-.504c.02-.099.026-.204.016-.31-.008-.113-.044-.205-.089-.194-.055 0-.155.085-.207.176a1.999 1.999 0 0 0-.16.291c-.085.194-.13.38-.151.536-.04.315 0 .51-.03.518" fill="#1A2E35"></path><path d="M81.302 106.87l-7.786 1.06 4.314-26.45-19.667 1.415a4.615 4.615 0 0 1-1.528-.148c-5.36-1.503-4.013-8.493-3.386-9.614l27.113-.775c2.94-.085 5.284 2.048 5.44 4.951l-4.5 29.561z" fill="#1A2E35"></path><path d="M72.922 37.872l-4.785 7.242c-.707 1.48-.263 3.421 1.114 4.102l.352.186c1.517.75 3.094.218 3.98-1.616.414-.86 1.207-.203 1.207-.203s2.222.677 3.44-1.432c.702-1.219 2.061-4.1 3.084-6.317.692-1.499.155-3.177-1.233-3.863l-1.23-.608c-2.193-.92-4.874.215-5.929 2.51" fill="#A96C44"></path><path d="M74.102 47.308s-.641-.281-1.507-1.853c0 0-1.153 1.517.987 2.331l.52-.478z" fill="#A96C44"></path><path d="M72.714 39.804c-.026-.033-1.157-1.123-1.928.35-.77 1.473.813 1.814.838 1.772.024-.04 1.09-2.122 1.09-2.122" fill="#FFC09D"></path><path d="M70.54 32.49c-5.499 4.3-1.932 10.783-1.932 10.783s3.712 1.325 4.498.418c0 0 .638-4.298 2.458-4.91 1.821-.614 4.793.477 5.445.922.65.446 2.788-1.574 1.417-4.74-1.658-3.83-7.28-6.075-11.887-2.473z" fill="#AFB7AD"></path><path d="M82.833 36.37c-2.245-2.957-7.063-4.292-11.102-1.135-3.252 2.543-3.333 5.85-2.856 8.128.867.283 3.573 1.087 4.23.328 0 0 .639-4.298 2.46-4.91 1.82-.614 4.792.477 5.444.923.548.374 2.151-.999 1.824-3.333" fill="#707676"></path><path d="M74.442 48.509c-2.479-1.075-2.435-3.977-3.03-5.899a.554.554 0 0 1 .366-.693c1.5-.469.465 4.43 3.106 5.575.673.293.23 1.309-.442 1.017" fill="#1A2E35"></path></g></svg>