<svg width="142" height="23" viewBox="0 0 109 16"><g fill="none" fillRule="evenodd"><path d="M6 1h101a2 2 0 0 1 2 2v10a2 2 0 0 1-2 2H6V1z" fill="#0074BA"></path><path d="M22.781 11.2c.252 0 .495-.021.729-.063.234-.042.45-.111.648-.207a1.89 1.89 0 0 0 .927-.972c.102-.246.165-.531.189-.855.024-.324.036-.705.036-1.143 0-.39-.012-.741-.036-1.053a2.172 2.172 0 0 0-.207-.81c-.198-.414-.486-.711-.864-.891a2.915 2.915 0 0 0-1.269-.27h-2.277V11.2h2.124zm.036-.99h-1.071V5.926h1.053c.456 0 .807.12 1.053.36.246.24.369.639.369 1.197v1.17c0 .234-.024.447-.072.639a1.264 1.264 0 0 1-.234.49c-.108.136-.252.24-.432.316-.18.074-.402.112-.666.112zm5.661 1.044c.354 0 .675-.056.963-.166.288-.111.534-.27.738-.477.204-.208.362-.458.473-.752.11-.294.166-.624.166-.99V7.267c0-.342-.054-.659-.162-.95a2.125 2.125 0 0 0-.468-.751 2.188 2.188 0 0 0-.738-.495 2.506 2.506 0 0 0-.972-.18c-.39 0-.732.064-1.026.194a2.045 2.045 0 0 0-.729.521 2.191 2.191 0 0 0-.432.761 2.827 2.827 0 0 0-.144.9v1.602c0 .318.048.621.144.909.096.288.24.541.432.76.192.22.435.393.729.522.294.13.636.194 1.026.194zm0-1.017c-.21 0-.392-.037-.545-.113a1.117 1.117 0 0 1-.382-.301 1.307 1.307 0 0 1-.23-.428 1.625 1.625 0 0 1-.076-.499V7.213c0-.162.025-.321.076-.477.051-.156.128-.295.23-.418.102-.123.23-.221.383-.293.152-.072.334-.108.544-.108.192 0 .364.035.517.104.153.069.282.162.387.279.105.117.186.253.243.409.058.156.086.324.086.504v1.683c0 .192-.028.369-.085.531a1.28 1.28 0 0 1-.244.423c-.105.12-.234.215-.387.284a1.245 1.245 0 0 1-.517.103zm5.49 1.017c.354 0 .675-.056.963-.166.288-.111.534-.27.738-.477.204-.208.362-.458.473-.752.11-.294.166-.624.166-.99V7.267c0-.342-.054-.659-.162-.95a2.125 2.125 0 0 0-.468-.751 2.188 2.188 0 0 0-.738-.495 2.506 2.506 0 0 0-.972-.18c-.39 0-.732.064-1.026.194a2.045 2.045 0 0 0-.729.521 2.191 2.191 0 0 0-.432.761 2.827 2.827 0 0 0-.144.9v1.602c0 .318.048.621.144.909.096.288.24.541.432.76.192.22.435.393.729.522.294.13.636.194 1.026.194zm0-1.017c-.21 0-.392-.037-.545-.113a1.117 1.117 0 0 1-.382-.301 1.307 1.307 0 0 1-.23-.428 1.625 1.625 0 0 1-.076-.499V7.213c0-.162.026-.321.077-.477.05-.156.127-.295.229-.418.102-.123.23-.221.383-.293.153-.072.334-.108.544-.108.192 0 .364.035.517.104.154.069.282.162.388.279.105.117.186.253.242.409.057.156.086.324.086.504v1.683c0 .192-.029.369-.086.531a1.28 1.28 0 0 1-.242.423c-.105.12-.234.215-.387.284a1.245 1.245 0 0 1-.518.103zm4.5.963V8.617h1.161l1.089 2.583h1.224l-1.233-2.745c.396-.144.703-.366.922-.666.22-.3.329-.651.329-1.053 0-.276-.05-.526-.148-.752a1.603 1.603 0 0 0-.41-.566 1.876 1.876 0 0 0-.612-.356 2.194 2.194 0 0 0-.747-.126h-2.664V11.2h1.089zm1.368-3.555h-1.368V5.899h1.404c.288 0 .522.066.702.198.18.132.27.345.27.639 0 .294-.095.519-.284.675-.189.156-.43.234-.724.234zm5.04 3.609c.318 0 .62-.042.905-.126.285-.084.535-.207.751-.369a1.709 1.709 0 0 0 .702-1.413c0-.324-.053-.592-.157-.806a1.473 1.473 0 0 0-.419-.521 1.86 1.86 0 0 0-.594-.306 5.832 5.832 0 0 0-.675-.167 13.29 13.29 0 0 1-.693-.14 2.202 2.202 0 0 1-.477-.161.681.681 0 0 1-.275-.226.588.588 0 0 1-.085-.328c0-.222.081-.41.243-.563.162-.152.435-.229.819-.229.228 0 .477.035.747.104.27.069.537.19.801.364l.54-.9c-.3-.21-.626-.36-.977-.45a4.535 4.535 0 0 0-1.129-.135c-.27 0-.532.038-.788.113a2.041 2.041 0 0 0-.679.341 1.718 1.718 0 0 0-.477.576c-.12.232-.18.503-.18.815 0 .348.061.63.184.846.123.216.287.388.491.518.204.129.437.225.697.288.261.063.527.112.797.148.384.06.67.155.86.284.188.129.283.319.283.571 0 .282-.107.495-.32.639-.212.144-.493.216-.841.216s-.681-.053-.999-.158a2.384 2.384 0 0 1-.882-.535l-.657.846c.372.33.775.556 1.21.68.436.123.86.184 1.274.184zm5.463-.054V5.908h1.746v-.972h-4.572v.972h1.737V11.2h1.089zm6.669 0v-.99h-3.105V8.518h2.646v-.954h-2.646V5.926h3.105v-.99h-4.194V11.2h4.194zm1.971 0V8.797h1.431c.306 0 .585-.053.837-.158.252-.104.468-.244.648-.418s.32-.375.418-.603c.1-.228.149-.468.149-.72a2.06 2.06 0 0 0-.167-.855 1.68 1.68 0 0 0-.459-.612 2.039 2.039 0 0 0-.679-.369 2.659 2.659 0 0 0-.828-.126H57.89V11.2h1.089zm1.359-3.393h-1.359V5.926h1.323c.312 0 .564.077.756.23.192.153.288.391.288.715a.922.922 0 0 1-.265.657c-.178.186-.425.279-.743.279zm7.263 3.393c.252 0 .495-.021.729-.063.234-.042.45-.111.648-.207a1.89 1.89 0 0 0 .927-.972c.102-.246.165-.531.189-.855.024-.324.036-.705.036-1.143 0-.39-.012-.741-.036-1.053a2.172 2.172 0 0 0-.207-.81c-.198-.414-.486-.711-.864-.891a2.915 2.915 0 0 0-1.269-.27h-2.277V11.2h2.124zm.036-.99h-1.071V5.926h1.053c.456 0 .807.12 1.053.36.246.24.369.639.369 1.197v1.17c0 .234-.024.447-.072.639a1.264 1.264 0 0 1-.234.49c-.108.136-.252.24-.432.316-.18.074-.402.112-.666.112zm7.776.99v-.99h-3.105V8.518h2.646v-.954h-2.646V5.926h3.105v-.99h-4.194V11.2h4.194zm5.076 0v-.99h-3.105V4.936h-1.089V11.2h4.194zm1.989 0V4.936H81.38V11.2h1.098zm3.672 0l2.115-6.264h-1.161l-.882 2.871-.477 1.647H85.7l-.504-1.656-.9-2.862h-1.161l2.124 6.264h.891zm7.002 0v-.99h-3.105V8.518h2.646v-.954h-2.646V5.926h3.105v-.99h-4.194V11.2h4.194zm1.971 0V8.617h1.161l1.089 2.583h1.224l-1.233-2.745c.396-.144.703-.366.922-.666.22-.3.329-.651.329-1.053 0-.276-.05-.526-.148-.752a1.603 1.603 0 0 0-.41-.566 1.876 1.876 0 0 0-.612-.356 2.194 2.194 0 0 0-.747-.126h-2.664V11.2h1.089zm1.368-3.555h-1.368V5.899h1.404c.288 0 .522.066.702.198.18.132.27.345.27.639 0 .294-.094.519-.283.675-.19.156-.431.234-.725.234zm5.535 3.555V8.626a586.67 586.67 0 0 0 1.953-3.69h-1.152l-.747 1.521-.558 1.233h-.018l-.27-.608c-.09-.2-.183-.4-.279-.598l-.756-1.548h-1.161c.33.618.656 1.233.977 1.845.32.612.646 1.227.976 1.845V11.2h1.035z" fill="#FCFBFA" fillRule="nonzero"></path><path d="M0 0h16v16H0z"></path><circle stroke="#0074BA" fill="#FFF" cx="8" cy="8" r="7.5"></circle><path d="M9.703 8.926l-1.686 1.686a.492.492 0 0 1-.34.143.49.49 0 0 1-.341-.143L6.278 9.554a.498.498 0 0 1 0-.682c.179-.18.483-.18.681 0l.717.718 1.345-1.346a.5.5 0 0 1 .682 0 .467.467 0 0 1 0 .682zm-3.03-3.981c0-.503.411-.915.913-.915h.826c.502 0 .914.412.914.915v1.363H6.672V4.945zm4.303 1.363h-.287V4.945a2.281 2.281 0 0 0-2.277-2.278h-.826A2.281 2.281 0 0 0 5.31 4.945v1.363h-.287C4.466 6.308 4 6.756 4 7.33v4.232c0 .556.448 1.022 1.022 1.022h5.954c.556 0 1.022-.448 1.022-1.022v-4.25a1.03 1.03 0 0 0-1.022-1.004z" fill="#0074BA"></path></g></svg>