<svg width="18" height="18" viewBox="0 0 18 18" class="svg-wrapper--8ky9e"><path d="M2.425 0A2.425 2.425 0 0 0 0 2.425v13.15A2.425 2.425 0 0 0 2.425 18H8.91l.012-6.432H7.25a.394.394 0 0 1-.394-.393l-.008-2.074c0-.218.176-.395.394-.395h1.669V6.702c0-2.325 1.42-3.59 3.493-3.59h1.702c.218 0 .395.176.395.394v1.748a.394.394 0 0 1-.394.394h-1.045c-1.128 0-1.346.537-1.346 1.323v1.735h2.478c.236 0 .42.206.392.44l-.246 2.074a.394.394 0 0 1-.392.348h-2.221L11.716 18h3.858A2.426 2.426 0 0 0 18 15.575V2.425A2.425 2.425 0 0 0 15.574 0H2.425z" fill="#FFF" fill-rule="evenodd"></path></svg>