<svg width="36" height="36" viewBox="0 0 18 17" fill="none" class="svg-wrapper--8ky9e"><path d="M8.872.844A11.707 11.707 0 0 1 6.01.5a3.102 3.102 0 1 0 5.744 0 11.71 11.71 0 0 1-2.88.344z" fill="#214E8C"></path><path d="M17.782 3.281L14.327.645a.714.714 0 0 0-.43-.145H11.81C11.445 3.42 9 3.266 9 3.266S6.425 3.42 6.066.5H4.103a.71.71 0 0 0-.429.145L.219 3.281a.557.557 0 0 0-.1.788l1.515 1.923a.573.573 0 0 0 .774.11l1.43-1.017v10.538a.552.552 0 0 0 .544.556h9.229a.552.552 0 0 0 .552-.552V5.085l1.427 1.017a.573.573 0 0 0 .777-.11l1.514-1.923a.56.56 0 0 0-.1-.788z" fill="#63ACF1"></path><mask id="mens_fashion_svg__a" maskUnits="userSpaceOnUse" x="0" y="0" width="18" height="17" style="mask-type: alpha;"><path d="M17.782 3.281L14.327.645a.714.714 0 0 0-.43-.145H11.81C11.445 3.42 9 3.32 9 3.32S6.425 3.42 6.066.5H4.103a.71.71 0 0 0-.429.145L.219 3.281a.557.557 0 0 0-.1.788l1.515 1.923a.573.573 0 0 0 .774.11l1.43-1.017v10.538a.552.552 0 0 0 .544.556h9.229a.552.552 0 0 0 .552-.552V5.085l1.427 1.017a.573.573 0 0 0 .777-.11l1.514-1.923a.56.56 0 0 0-.1-.788z" fill="#DF655A"></path></mask><g mask="url(#mens_fashion_svg__a)"><path d="M14.25 15.5C7.65 12.5 3.875 3.625 2.625.5l-3.375 3 3 13.5h10.125c3.375.5 8.475 1.5 1.875-1.5z" fill="#4998E4"></path></g></svg>