<svg height="34" width="34" viewBox="0 0 36 36" class="svg-wrapper--8ky9e"><g fill="none" fill-rule="evenodd"><path d="M25.647 7.867L22.38 2.146C21.78 1.044 21.008.594 19.764.62l-6.54.003C11.98.65 11.22 1.077 10.6 2.162L3.275 14.975a2.3 2.3 0 0 0 .834 3.114l11.116 6.481a2.255 2.255 0 0 0 3.09-.828L25.64 10.93c.62-1.084.606-1.96.006-3.062m-8.466.321a2.294 2.294 0 0 1-.834-3.115 2.248 2.248 0 0 1 3.088-.828 2.294 2.294 0 0 1 .835 3.116 2.248 2.248 0 0 1-3.089.827" fill="#029677"></path><path d="M28.908 11.215l-3.605-6.313c-.661-1.215-1.514-1.712-2.886-1.683l-7.218.004c-1.373.03-2.21.5-2.894 1.697L4.22 19.058a2.538 2.538 0 0 0 .921 3.437l12.266 7.151a2.488 2.488 0 0 0 3.408-.913l8.085-14.139c.683-1.196.669-2.164.007-3.379m-9.342.355a2.53 2.53 0 0 1-.92-3.438 2.48 2.48 0 0 1 3.408-.913 2.532 2.532 0 0 1 .92 3.438 2.48 2.48 0 0 1-3.408.913" fill="#FFCE28"></path><g transform="rotate(-15 41.234 5.747)"><circle fill="#FFF" cx="21.672" cy="8.276" r="3.44"></circle><path d="M29.143 12.525l-2.022-7.69c-.355-1.471-1.115-2.237-2.573-2.595L16.921.2c-1.458-.357-2.476-.097-3.537.974L.84 13.822a2.776 2.776 0 0 0 0 3.892l10.935 11.028a2.721 2.721 0 0 0 3.859 0l12.543-12.65c1.061-1.07 1.32-2.096.965-3.567m-9.97-2.27a2.768 2.768 0 0 1 0-3.892 2.713 2.713 0 0 1 3.86 0 2.769 2.769 0 0 1 0 3.892 2.713 2.713 0 0 1-3.86 0" fill="#53738A"></path><path d="M23.032 10.255a2.713 2.713 0 0 1-3.86 0L6.309 23.228l5.468 5.514a2.721 2.721 0 0 0 3.859 0l12.543-12.65c1.061-1.07 1.32-2.096.965-3.567l-2.022-7.69c-.177-.736-.456-1.295-.873-1.716l-3.216 3.244a2.769 2.769 0 0 1 0 3.892" fill="#3C566E"></path><path fill="#E3E2D5" d="M3.736 16.741l9.005-9.08 8.683 8.756-9.005 9.081-8.683-8.757"></path><path fill="#D7D6CA" d="M17.243 12.2l-9.005 9.082 4.181 4.216 9.005-9.08-4.181-4.217"></path><path fill="#A9A9A9" d="M7.916 14.471l7.076 7.135-1.287 1.298-7.075-7.135 1.286-1.298M12.42 13.822l5.145 5.19-1.287 1.296-5.146-5.188 1.287-1.298"></path><path fill="#999" d="M14.027 15.444l3.538 3.568-1.287 1.297-3.537-3.568 1.286-1.297M11.454 18.039l3.538 3.567-1.287 1.298-3.537-3.568 1.286-1.297"></path></g></g></svg>