<svg height="34" width="34" viewBox="0 0 38 38" class="svg-wrapper--8ky9e"><defs><path d="M9.742 3.62a.937.937 0 0 0-.247-.029l-2.848.015a.253.253 0 0 1-.138-.056.25.25 0 0 1-.09-.116L5.592.487a.875.875 0 0 0-.119-.265A.499.499 0 0 0 5.066 0a.497.497 0 0 0-.407.222.87.87 0 0 0-.119.266l-.825 2.946a.245.245 0 0 1-.09.116.254.254 0 0 1-.138.056L.639 3.59a.834.834 0 0 0-.337.06.52.52 0 0 0-.196.145A.464.464 0 0 0 0 4.09a.514.514 0 0 0 .133.338.914.914 0 0 0 .2.168L2.626 6.07c.041.017.113.142.107.226 0 .02-.003.037-.007.05L1.835 9.22a.886.886 0 0 0-.044.261c.001.082.01.19.095.31a.483.483 0 0 0 .387.193c.235-.012.332-.103.449-.19l2.244-1.88a.194.194 0 0 1 .118-.036.19.19 0 0 1 .113.034l2.365 1.894c.117.084.213.17.443.183.134 0 .3-.07.38-.187a.505.505 0 0 0 .099-.31.859.859 0 0 0-.052-.279L7.429 6.321a.155.155 0 0 1-.008-.052c-.005-.078.06-.19.097-.205l2.284-1.467a.923.923 0 0 0 .2-.17.518.518 0 0 0 .132-.337.466.466 0 0 0-.106-.293.548.548 0 0 0-.286-.177z" id="fav-ads-icon_svg__a"></path><ellipse id="fav-ads-icon_svg__c" cx="17.379" cy="17.6" rx="10.174" ry="10.146"></ellipse><path d="M26.281 9.934a1.438 1.438 0 0 0-.749-.462 2.458 2.458 0 0 0-.649-.076l-7.463.038a.664.664 0 0 1-.361-.145.654.654 0 0 1-.239-.303l-2.161-7.711a2.287 2.287 0 0 0-.313-.694A1.307 1.307 0 0 0 13.278 0c-.59.012-.92.367-1.068.582a2.273 2.273 0 0 0-.311.696L9.737 8.985c-.014.067-.102.206-.237.304a.666.666 0 0 1-.362.145l-7.464-.038c-.289.004-.556.022-.881.157-.161.07-.347.18-.515.38a1.213 1.213 0 0 0-.278.769c.009.433.196.698.35.882.16.186.331.317.52.442l6.015 3.851c.107.045.296.373.28.592a.454.454 0 0 1-.018.13L4.81 24.125a2.315 2.315 0 0 0-.116.684c.003.215.029.495.25.81.214.323.69.526 1.014.506.615-.033.87-.27 1.175-.497l5.881-4.918a.509.509 0 0 1 .31-.094.5.5 0 0 1 .296.087l6.2 4.957c.306.22.558.446 1.16.477l.043.001c.309 0 .742-.183.954-.49.228-.312.254-.597.258-.808a2.243 2.243 0 0 0-.137-.731l-2.629-7.572a.405.405 0 0 1-.02-.134c-.014-.206.156-.497.255-.538l5.984-3.838c.19-.124.361-.256.523-.442.152-.184.338-.449.347-.882.005-.27-.11-.573-.276-.768" id="fav-ads-icon_svg__e"></path><path id="fav-ads-icon_svg__g" d="M10.292 22.416v5.427h2.957v-5.427z"></path><path d="M11.712 0c6.468 0 11.711 5.23 11.711 11.68 0 6.45-5.243 11.68-11.711 11.68C5.243 23.36 0 18.13 0 11.68 0 5.23 5.243 0 11.712 0zm0 2.242c-5.227 0-9.464 4.225-9.464 9.438 0 5.213 4.237 9.439 9.464 9.439 5.226 0 9.464-4.226 9.464-9.439s-4.238-9.438-9.464-9.438z" id="fav-ads-icon_svg__i"></path><path d="M9.109 26.388v10.6c0 .857.696 1.552 1.554 1.552h2.215c.859 0 1.554-.688 1.554-1.551V26.388H9.11z" id="fav-ads-icon_svg__k"></path></defs><g transform="translate(-1.62 -1.945)" fill="none" fillRule="evenodd"><g transform="translate(5.667 21.847)"><mask id="fav-ads-icon_svg__b" fill="#fff"><use xlink:href="#fav-ads-icon_svg__a"></use></mask><use fill="#FFC800" xlink:href="#fav-ads-icon_svg__a"></use><path fill-opacity="0.3" fill="#CCA000" mask="url(#fav-ads-icon_svg__b)" d="M5.01-1.533v13.032h13.046V-1.533z"></path></g><mask id="fav-ads-icon_svg__d" fill="#fff"><use xlink:href="#fav-ads-icon_svg__c"></use></mask><g mask="url(#fav-ads-icon_svg__d)"><g transform="translate(2 7.69)"><mask id="fav-ads-icon_svg__f" fill="#fff"><use xlink:href="#fav-ads-icon_svg__e"></use></mask><use fill="#FFC800" xlink:href="#fav-ads-icon_svg__e"></use><path fill-opacity="0.2" fill="#CCA000" mask="url(#fav-ads-icon_svg__f)" d="M13.131-4.011v34.096H47.32V-4.01z"></path></g></g><g transform="rotate(-45 21.217 7.492)"><mask id="fav-ads-icon_svg__h" fill="#fff"><use xlink:href="#fav-ads-icon_svg__g"></use></mask><use fill="#A3AFAB" xlink:href="#fav-ads-icon_svg__g"></use><path fill="#8C9693" mask="url(#fav-ads-icon_svg__h)" d="M11.83 22.298v5.663h7.216v-5.663z"></path><mask id="fav-ads-icon_svg__j" fill="#fff"><use xlink:href="#fav-ads-icon_svg__i"></use></mask><use fill="#BEC7C4" xlink:href="#fav-ads-icon_svg__i"></use><path fill="#AFB7B5" mask="url(#fav-ads-icon_svg__j)" d="M11.83-3.54v28.906h18.1V-3.54z"></path><mask id="fav-ads-icon_svg__l" fill="#fff"><use xlink:href="#fav-ads-icon_svg__k"></use></mask><use fill="#C7AB7F" xlink:href="#fav-ads-icon_svg__k"></use><path fill="#AD946F" mask="url(#fav-ads-icon_svg__l)" d="M11.83 25.366V39.76h5.678V25.366z"></path></g></g></svg>