<svg width="36" height="36" viewBox="0 0 24 24" class="svg-wrapper--8ky9e"><g fill="none" fillRule="evenodd"><path d="M1 2h22a1 1 0 0 1 1 1v14.8a1 1 0 0 1-1 1H1a1 1 0 0 1-1-1V3a1 1 0 0 1 1-1z" fill="#29394C"></path><path d="M2.2 3.2h19.6a1 1 0 0 1 1 1v12.4a1 1 0 0 1-1 1H2.2a1 1 0 0 1-1-1V4.2a1 1 0 0 1 1-1z" fill="#E6E7E8"></path><path d="M20.444 3.2L5.993 17.6H2.2a1 1 0 0 1-1-1V4.2a1 1 0 0 1 1-1h18.244z" fill="#FFF" opacity="0.4"></path><path d="M3 20h18a.6.6 0 0 1 0 1.2H3A.6.6 0 0 1 3 20z" fill="#29394C"></path><path fill="#27323F" d="M9.6 18.8h3.6V20H9.6z"></path></g></svg>