<svg height="34" width="34" viewBox="0 0 36 36" class="svg-wrapper--8ky9e"><defs><path d="M33.887 14.564L31.536 5.62c-.412-1.71-1.296-2.6-2.992-3.017L19.676.234c-1.695-.417-2.88-.114-4.113 1.13L.978 16.074a3.228 3.228 0 0 0 0 4.525L13.692 33.42a3.164 3.164 0 0 0 4.488 0l14.585-14.707c1.234-1.245 1.534-2.439 1.122-4.15m-11.593-2.639a3.219 3.219 0 0 1 0-4.525 3.154 3.154 0 0 1 4.487 0 3.22 3.22 0 0 1 0 4.525 3.154 3.154 0 0 1-4.487 0" id="post-ad-icon_svg__a"></path><path d="M8.563 17.225C3.86 17.225.05 13.392.05 8.66.05 3.93 3.86.097 8.563.097c4.703 0 8.514 3.834 8.514 8.564s-3.811 8.564-8.514 8.564z" id="post-ad-icon_svg__c"></path><path d="M12.65 10.73c.298.16.323.399.346.542.022.145.07 1.715.07 1.715h-8.78s.047-1.57.069-1.715c.022-.143.024-.362.346-.543.895-.502 2.023-.733 2.402-1.021.151-.115.112-.3.145-.477.034-.177.145-.055.145-.244s.036-.156.015-.408c-.018-.22-.321-.243-.338-.653-.004-.087-.156-.144-.245-.277-.09-.133-.234-.366-.234-.632s.055-.2.055-.532-.012-.525.179-1.296c.071-.288.313-.625.556-.778.327-.206.196.069 1.295-.175.713-.158 1.83.576 1.84 1.163.015.795.064.735.112 1.064.033.233.1.177.1.443s-.145.599-.234.732a1.38 1.38 0 0 0-.184.432c-.058.444-.356.341-.369.579-.01.217-.025.19.007.359.028.141.11-.01.144.168.034.177.01.437.15.515.38.288 1.504.55 2.408 1.038z" id="post-ad-icon_svg__e"></path></defs><g fill="none" fillRule="evenodd"><path d="M33.887 14.564L31.536 5.62c-.412-1.71-1.296-2.6-2.992-3.017L19.676.234c-1.695-.417-2.88-.114-4.113 1.13L.978 16.074a3.228 3.228 0 0 0 0 4.525L13.692 33.42a3.164 3.164 0 0 0 4.488 0l14.585-14.707c1.234-1.245 1.534-2.439 1.122-4.15m-11.593-2.639a3.219 3.219 0 0 1 0-4.525 3.154 3.154 0 0 1 4.487 0 3.22 3.22 0 0 1 0 4.525 3.154 3.154 0 0 1-4.487 0" fill="#CCB47F"></path><path d="M26.781 11.924a3.154 3.154 0 0 1-4.487 0L7.334 27.01l6.358 6.411a3.164 3.164 0 0 0 4.488 0l14.585-14.707c1.234-1.245 1.534-2.439 1.122-4.15l-2.351-8.942c-.206-.855-.53-1.505-1.015-1.994L26.781 7.4a3.22 3.22 0 0 1 0 4.525" fill="#C1A772"></path><path fill="#E3E2D5" d="M4.344 19.467l10.47-10.56L24.913 19.09 14.44 29.65 4.344 19.466"></path><path fill="#D7D6CA" d="M20.05 14.187L9.579 24.747l4.862 4.902 10.47-10.56-4.861-4.902"></path><path fill="#A9A9A9" d="M9.205 16.827l8.227 8.296-1.496 1.51-8.227-8.297 1.496-1.51M14.44 16.073l5.984 6.033-1.496 1.509-5.983-6.034 1.496-1.508"></path><path fill="#999" d="M16.31 17.958l4.114 4.149-1.496 1.508-4.113-4.148 1.495-1.509M13.319 20.975l4.113 4.148-1.496 1.51-4.113-4.15 1.496-1.508"></path><mask id="post-ad-icon_svg__b" fill="#fff"><use xlink:href="#post-ad-icon_svg__a"></use></mask><path d="M33.161 27.819c0 4.11-3.312 7.442-7.399 7.442s-7.398-3.331-7.398-7.442c0-4.111 3.311-7.443 7.398-7.443s7.4 3.332 7.4 7.443" fill="#978258" opacity="0.68" mask="url(#post-ad-icon_svg__b)"></path><g transform="translate(18.115 17.807)"><mask id="post-ad-icon_svg__d" fill="#fff"><use xlink:href="#post-ad-icon_svg__c"></use></mask><use fill="#009877" xlink:href="#post-ad-icon_svg__c"></use><path fill="#007168" opacity="0.501" mask="url(#post-ad-icon_svg__d)" d="M15.768 2.235l6.453 6.491L8.975 22.05l-6.453-6.491z"></path><mask id="post-ad-icon_svg__f" fill="#fff"><use xlink:href="#post-ad-icon_svg__e"></use></mask><use fill="#FFF" xlink:href="#post-ad-icon_svg__e"></use><path fill="#D4DED9" opacity="0.501" mask="url(#post-ad-icon_svg__f)" d="M15.768 2.235l6.453 6.491L8.975 22.05l-6.453-6.491z"></path></g></g></svg>