<svg width="40" height="40" viewBox="0 0 13 18" fill="none" class="svg-wrapper--8ky9e"><path d="M8.176 6.75a5.582 5.582 0 0 1-3.957 0S1.46 9.509.114 15.81c-.074.346.052.704.357.886.794.474 2.625 1.303 5.724 1.304h.006c3.099-.001 4.93-.83 5.724-1.304.304-.182.43-.54.356-.887-1.345-6.3-4.105-9.059-4.105-9.059z" fill="#F05A4E"></path><path d="M5.25 7.05l-1.03-.3S1.46 9.509.115 15.809c-.074.347.052.705.357.887.402.24 1.069.57 2.03.838C4.029 9 5.25 7.05 5.25 7.05z" fill="#C54237"></path><path d="M4.904 17.949c.403.032.833.051 1.291.051h.006c.162 0 .32-.003.476-.007a64.59 64.59 0 0 1-1.773-.044z" fill="#C95F55"></path><path d="M6.199 1.067C4.887 1.067 3.789.61 3.51 0h-.03V3.51h5.436V0h-.03C8.609.61 7.51 1.067 6.199 1.067z" fill="#8F6719"></path><path d="M10.128.474C9.478.023 8.905 0 8.905 0S8.51 2.549 6.19 2.615C3.87 2.549 3.473 0 3.473 0S2.9.023 2.25.474c.497.321 1.137 1.157.96 1.833-.178.675.035 1.029.533 1.736.497.707.32 1.8.32 1.8a6.396 6.396 0 0 0 4.253 0s-.177-1.093.32-1.8c.497-.708.71-1.061.533-1.736-.178-.676.462-1.513.96-1.833z" fill="#FFCE28"></path><path d="M4.84 4.334c-.497-.708-1.117-.858-1.027-2.028.048-.6-.547-1.647-1.03-2.127-.19.08-.368.18-.533.295.498.321 1.138 1.157.96 1.833-.178.675.035 1.029.533 1.736.498.707.32 1.8.32 1.8L4.74 6s.597-.959.1-1.666z" fill="#CD9B1A"></path></svg>